# xmcd
# Track frame offsets:
# 150
# 17305
# 33177
# 43767
# 55222
# 71322
# 84832
# 102862
# 122370
# 133847
# 157530
# 174930
# 190612
# 222337
# 244045
# 261707
#
# Disc length: 3765 seconds
# Revision: 0
# Processed by: cddbd v1.4PL0 Copyright (c) Steve Scherf et al.
# Submitted via: VisiTrax 2.9.3.171 - For more info visit www.synapsa.com
#
DISCID=c30eb310
DTITLE=Willie Nelson - A Lifetime Of Love Songs
DYEAR=2003
DGENRE=Country
TTITLE0=Wind Beneath My Wings
TTITLE1=Always On My Mind
TTITLE2=Blue Eyes Crying In The Rain
TTITLE3=Mona Lisa
TTITLE4=Blue Skies
TTITLE5=I'm Gonna Sit Right Down And Write Myself A Letter
TTITLE6=Help Me Make It Through The Night
TTITLE7=Please Come To Boston
TTITLE8=On the Road Again
TTITLE9=Me And Bobby McGee
TTITLE10=Stardust
TTITLE11=Mama Don't Let Your Babies Grow Up To Be Cowboys
TTITLE12=Sunday Morning Comin' Down
TTITLE13=City Of New Orleans
TTITLE14=Why Me Lord
TTITLE15=Bridge Over Troubled Water
EXTD=J&B Records
EXTT0=
EXTT1=
EXTT2=
EXTT3=
EXTT4=
EXTT5=
EXTT6=
EXTT7=
EXTT8=
EXTT9=
EXTT10=
EXTT11=
EXTT12=
EXTT13=
EXTT14=
EXTT15=
PLAYORDER=
